<svg id="e6peGIDCif91" xmlns="http://www.w3.org/2000/svg" xmlns:xlink="http://www.w3.org/1999/xlink"
    viewBox="0 0 500 500" shape-rendering="geometricPrecision" text-rendering="geometricPrecision">
    <style>
        <![CDATA[
        #e6peGIDCif92_tr {
            animation: e6peGIDCif92_tr__tr 1315.7894736842104ms linear infinite normal forwards
        }

        @keyframes e6peGIDCif92_tr__tr {
            0% {
                transform: translate(236.661594px, 250px) rotate(0deg)
            }

            20% {
                transform: translate(236.661594px, 250px) rotate(0deg)
            }

            50% {
                transform: translate(236.661594px, 250px) rotate(360deg)
            }

            100% {
                transform: translate(236.661594px, 250px) rotate(360deg)
            }
        }

        #e6peGIDCif92_ts {
            animation: e6peGIDCif92_ts__ts 1315.7894736842104ms linear infinite normal forwards
        }

        @keyframes e6peGIDCif92_ts__ts {
            0% {
                transform: scale(0.5, 0.5)
            }

            20% {
                transform: scale(0.4, 0.4)
            }

            50% {
                transform: scale(0.3, 0.3)
            }

            100% {
                transform: scale(0.5, 0.5)
            }
        }
        ]]>
    </style>
    <g id="e6peGIDCif92_tr" transform="translate(236.661594,250) rotate(0)">
        <g id="e6peGIDCif92_ts" transform="scale(0.5,0.5)">
            <g transform="translate(-499.999511,-492.401794)">
                <path
                    d="M697.831,853.021L594.086,956.336l-7.942-29.14L666.77,846.89l30.052,5.88c.342.063.678.147,1.009.251Z"
                    fill="#00e8fc" />
                <path
                    d="M706.815,864.342l.785,16.019-91.044,90.681-14.486-5.299c-3.777-1.381-6.644-4.506-7.703-8.384l-.283-1.024L697.828,853.019c5.076,1.431,8.722,5.967,8.987,11.323Z"
                    fill="#2dd881" />
                <path d="M707.598,880.361l1.742,35.34-65.571,65.297-27.212-9.956l91.041-90.681Z" fill="#c9f180" />
                <path
                    d="M666.769,846.89l-80.625,80.307-7.954-29.156l56.725-56.499c1.524-.275,3.088-.274,4.629.026l27.225,5.322Z"
                    fill="#f9c846" />
                <path
                    d="M709.341,915.701l1.162,23.699c.196,4.037-1.588,7.919-4.784,10.396l-41.773,32.411c-3.361,2.61-7.826,3.304-11.814,1.847l-8.362-3.057l65.571-65.296Z"
                    fill="#ff595f" />
                <path
                    d="M634.916,841.542L578.19,898.041l-3.545-13.011c-1.505-5.518.952-11.34,5.938-14.1l50.607-28.043c1.175-.652,2.433-1.1,3.726-1.345Z"
                    fill="#8f41b0" />
                <path
                    d="M693.688,874.984l2.882,58.654c.153,3.154-1.239,6.187-3.733,8.124l-32.645,25.329c-2.628,2.035-6.115,2.579-9.234,1.434l-39.114-14.302c-2.946-1.08-5.192-3.516-6.017-6.551l-15.415-56.52c-1.17-4.305.745-8.854,4.64-11.015l39.543-21.911c1.988-1.098,4.302-1.465,6.529-1.027l44.758,8.748c4.366.859,7.585,4.587,7.806,9.037Z"
                    fill="#bd8fd1" />
                <path
                    d="M660.611,933.562c.227,1.296-.02,2.47-.737,3.523-.719,1.053-1.646,1.681-2.782,1.88-.759.132-1.511.015-2.256-.346-.748-.361-1.4-1.018-1.954-1.965l-6.243-10.573-25.002,4.37-2.282,12.062c-.202,1.079-.592,1.919-1.171,2.512-.58.593-1.271.962-2.075,1.103-1.089.19-2.162-.086-3.22-.83-1.058-.743-1.7-1.763-1.926-3.058-.128-.731-.115-1.488.042-2.271l10.838-53.511c.229-1.201.73-2.173,1.503-2.917.773-.745,1.655-1.204,2.649-1.378.995-.174,1.98-.04,2.962.396.978.439,1.78,1.183,2.404,2.234l28.44,46.649c.412.681.682,1.39.81,2.12Zm-18.576-15.38l-13.766-23.445-4.986,26.723l18.752-3.278Z"
                    fill="#5e1286" />
                <path
                    d="M682.448,877.48l6.606,37.753c4.701,22.375-28.483,25.055-31.251,4.93.124-2.07,3.162-2.53,4.456-1.118c2.988,4.608,16.637,10.125,15.92-1.911c0,0-2.905-28.587-6.607-37.754s9.776-11.764,10.876-1.9Z"
                    fill="#5e1286" />
                <path d="M251.51,393.432c-64.243-77.283-91.961-125.727-98.592-238.527L295.775,306.479L251.51,393.432Z"
                    transform="translate(1.585901 0)" fill="#824b2e" />
                <path
                    d="M271.63,183.89L152.918,154.905c28.549,59.473,125.251,165.354,139.839,156.326s100.101-109.286,100.101-109.286L271.63,183.89Z"
                    fill="#0a0a0a" />
                <path
                    d="M998.994,424.317C996.978,177.311,970.728,83.3854,876.258,0.480469C880.843,192.369,905.936,330.712,905.936,330.712s70.548,74.77,93.058,93.605Z"
                    fill="#824b2e" />
                <path
                    d="M251.005,395.808l41.248-84.577L389.335,200.52l15.594-7.602l14.084-9.503c0,0,5.534-7.603,0-7.603-5.533,0-11.569,1.901-11.569,1.901l-15.091,3.801-15.09,4.752c0,0-2.515.95-3.521,0s0-4.752,0-4.752l2.012-3.326c0,0,4.527-3.801,7.545-5.227c3.018-1.425,50.805-18.055,62.877-21.381c12.073-3.327,25.654-3.802,40.745-4.277c15.09-.475,31.69,0,32.696,0s1.006-1.901,1.006-1.901s0-.95-1.006-1.9-44.266-.95-45.272-1.426c-1.006-.475-4.527-.95-4.527-.95s-6.036-.95-6.539-1.425-1.509-3.326,0-5.227s4.527-1.425,5.533-2.851c1.006-1.425,8.049-2.851,8.049-2.851l103.118,2.851l38.23,8.078l46.78,15.68l45.775,22.332h14.084l34.709-17.106l40.744-33.26l36.72-55.5932c0,0,34.709-71.27296,38.733-71.748113s19.618,28.984313,19.618,28.984313l19.617,48.4657l13.079,89.3283l4.024,71.749l4.527,113.086l63.38,71.748v2.851h-2.515l-29.678-26.609l18.612,67.947l13.581,67.472-10.06,9.978-50.805,32.786v2.376l16.6-3.802l12.072-1.9h15.091c7.042,0,0,12.354,0,12.354s-195.369,192.862-245.473,222.371c-50.104,29.51-131.712,43.868-217.304,64.621h-25.151c-36.689-3.545-56.642-7.838-91.046-19.956-65.386-31.372-103.661-57.424-174.044-114.987l-36.721-46.09-25.654-39.913c-11.167-19.95-12.575-28.034-12.072-30.41s9.557-12.354,20.624-31.835l17.102-30.885l57.847-163.928Z" />
                <path
                    d="M688.129,628.633c126.074,19.522,181.302,56.199,266.6,145.397C865.03,686.926,809.11,649.904,687.123,630.533l1.006-1.9Z"
                    fill="#fff" />
                <path
                    d="M653.232,658.567c102.376,19.522,147.223,56.2,216.487,145.397-72.838-87.103-118.247-124.126-217.304-143.496l.817-1.901Z"
                    fill="#fff" />
                <path
                    d="M648.928,708.934c67.303,14.29,96.785,41.139,142.32,106.434-47.884-63.762-77.736-90.864-142.857-105.043l.537-1.391Z"
                    fill="#fff" />
                <path
                    d="M768.613,465.655c0-61.294-82.495-124.199-142.355-111.185-63.38,13.779-100.249,100.104-98.591,143.971-.164,49.791,33.199,71.933,98.591,74.124c70.926,2.376,142.355-45.615,142.355-106.91Z"
                    fill="#c9f180" />
                <path d="M641.731,353.504c-76.664,10.403-84.003,188.59-21.704,185.266s98.368-195.67,21.704-185.266Z" />
                <ellipse rx="7.04225" ry="6.65214" transform="translate(652.042 496.652)" fill="#fff" />
                <path
                    d="M349.597,372.05c-44.769,0-78.974,65.571-70.423,133.518c6.542,37.25,29.739,56.977,70.423,51.316c72.364-20.635,64.56-184.834,0-184.834Z"
                    fill="#c9f180" />
                <path
                    d="M347.082,372.05c-55.332,5.702-67.403,166.303-22.635,166.304c44.768,0,77.968-172.006,22.635-166.304Z" />
                <ellipse rx="7.04225" ry="6.65214" transform="translate(346.579 496.541)" fill="#fff" />
                <path
                    d="M266.6,607.252C140.526,626.774,85.2972,663.451,0,752.649c89.6983-87.104,145.619-124.126,267.606-143.496l-1.006-1.901Z"
                    fill="#fff" />
                <path
                    d="M301.497,637.187C199.121,656.708,154.274,693.386,85.0098,782.583C157.847,695.48,203.256,658.457,302.314,639.087l-.817-1.9Z"
                    fill="#fff" />
                <path
                    d="M305.801,687.553c-67.303,14.29-96.786,41.139-142.321,106.434c47.885-63.762,77.737-90.864,142.858-105.043l-.537-1.391Z"
                    fill="#fff" />
                <path
                    d="M425.818,722.617l5.994-63.895-7.015-.587-5.993,63.895c-16.445,20.726-35.627,19.2-86.36-5.319-1.365-.62-1.87,2.363,0,3.95c1.871,1.588,17.556,9.617,35.81,16.604c18.255,6.988,31.691,3.068,31.691,3.068s18.015-9.31,19.696-11.077c1.681-1.768,4.186-1.558,5.511.461c1.326,2.019,14.028,11.898,19.058,13.3s26.242,4.225,34.205,3.303s30.014-5.34,36.927-9.055c6.914-3.714,8.737-9.075.489-5.206-8.249,3.87-73.868,21.481-90.013-9.442Z"
                    fill="#fff" />
                <path
                    d="M466.306,608.241c-12.064-.422-35.187,11.607-40.679,10.464s-26.902-19.961-33.214-13.049c-6.311,6.911,2.793,18.641,2.793,18.641c20.013,28.754,16.424,24.227,28.838,34.768l9.048.317c0,0,36.23-25.359,41.536-32.306s3.742-18.413-8.322-18.835Z"
                    fill="#ffcdcf" />
            </g>
        </g>
    </g>
</svg>